<svg width="1200" height="760" viewBox="0 0 1200 760" fill="none" xmlns="http://www.w3.org/2000/svg">
  <defs>
    <linearGradient id="bg" x1="80" y1="56" x2="1114" y2="708" gradientUnits="userSpaceOnUse">
      <stop stop-color="#111827"/>
      <stop offset="1" stop-color="#1E3A8A"/>
    </linearGradient>
  </defs>
  <rect width="1200" height="760" rx="40" fill="url(#bg)"/>
  <rect x="80" y="76" width="1040" height="608" rx="34" fill="#0C1627" stroke="#93C5FD" stroke-opacity="0.16"/>
  <text x="122" y="176" fill="#EFF6FF" font-size="72" font-family="Arial, sans-serif" font-weight="700">Platform Control</text>
  <text x="122" y="230" fill="#BFDBFE" font-size="28" font-family="Arial, sans-serif">Operational guardrails, rollout safety, and engineering visibility for delivery teams.</text>
  <rect x="126" y="304" width="910" height="264" rx="30" fill="#0F172A" stroke="#60A5FA" stroke-opacity="0.18"/>
  <path d="M188 494C292 394 382 360 488 360C594 360 640 440 754 440C856 440 928 384 984 318" stroke="#7DD3FC" stroke-width="12" stroke-linecap="round"/>
  <circle cx="320" cy="402" r="14" fill="#EFF6FF"/>
  <circle cx="520" cy="360" r="14" fill="#EFF6FF"/>
  <circle cx="738" cy="440" r="14" fill="#EFF6FF"/>
  <circle cx="936" cy="374" r="14" fill="#EFF6FF"/>
  <rect x="168" y="338" width="182" height="16" rx="8" fill="#EFF6FF" fill-opacity="0.82"/>
  <rect x="168" y="372" width="258" height="12" rx="6" fill="#60A5FA" fill-opacity="0.72"/>
</svg>
