<svg width="1200" height="760" viewBox="0 0 1200 760" fill="none" xmlns="http://www.w3.org/2000/svg">
  <defs>
    <linearGradient id="bg" x1="80" y1="54" x2="1118" y2="708" gradientUnits="userSpaceOnUse">
      <stop stop-color="#172554"/>
      <stop offset="1" stop-color="#0F172A"/>
    </linearGradient>
  </defs>
  <rect width="1200" height="760" rx="40" fill="url(#bg)"/>
  <rect x="80" y="76" width="1040" height="608" rx="34" fill="#091123" stroke="#93C5FD" stroke-opacity="0.18"/>
  <text x="124" y="176" fill="#EFF6FF" font-size="72" font-family="Arial, sans-serif" font-weight="700">Knowledge Console</text>
  <text x="124" y="230" fill="#BFDBFE" font-size="28" font-family="Arial, sans-serif">Retrieval, structured documents, evaluation loops, and searchable product memory.</text>
  <rect x="124" y="304" width="380" height="248" rx="28" fill="#0F172A" stroke="#60A5FA" stroke-opacity="0.18"/>
  <rect x="544" y="250" width="470" height="358" rx="28" fill="#0A1730" stroke="#60A5FA" stroke-opacity="0.16"/>
  <rect x="166" y="346" width="148" height="16" rx="8" fill="#EFF6FF" fill-opacity="0.82"/>
  <rect x="166" y="380" width="282" height="12" rx="6" fill="#60A5FA" fill-opacity="0.72"/>
  <rect x="166" y="412" width="236" height="12" rx="6" fill="#93C5FD" fill-opacity="0.56"/>
  <rect x="586" y="308" width="146" height="16" rx="8" fill="#EFF6FF" fill-opacity="0.82"/>
  <rect x="586" y="344" width="318" height="12" rx="6" fill="#60A5FA" fill-opacity="0.72"/>
  <rect x="586" y="376" width="286" height="12" rx="6" fill="#93C5FD" fill-opacity="0.56"/>
  <circle cx="936" cy="470" r="86" fill="#3B82F6" fill-opacity="0.16"/>
</svg>
