<svg width="1200" height="760" viewBox="0 0 1200 760" fill="none" xmlns="http://www.w3.org/2000/svg">
  <defs>
    <linearGradient id="bg" x1="78" y1="54" x2="1122" y2="708" gradientUnits="userSpaceOnUse">
      <stop stop-color="#0F172A"/>
      <stop offset="1" stop-color="#155E75"/>
    </linearGradient>
  </defs>
  <rect width="1200" height="760" rx="40" fill="url(#bg)"/>
  <rect x="72" y="74" width="1056" height="612" rx="34" fill="#0B1223" stroke="#67E8F9" stroke-opacity="0.2"/>
  <text x="118" y="174" fill="#F0FDFA" font-size="72" font-family="Arial, sans-serif" font-weight="700">AI Ops</text>
  <text x="118" y="228" fill="#A5F3FC" font-size="28" font-family="Arial, sans-serif">Automation, review queues, workflow signals, and applied LLM tooling.</text>
  <rect x="118" y="312" width="404" height="226" rx="26" fill="#101827" stroke="#67E8F9" stroke-opacity="0.18"/>
  <rect x="560" y="246" width="478" height="358" rx="28" fill="#081F27" stroke="#67E8F9" stroke-opacity="0.16"/>
  <rect x="160" y="356" width="162" height="16" rx="8" fill="#E2E8F0" fill-opacity="0.82"/>
  <rect x="160" y="392" width="248" height="12" rx="6" fill="#67E8F9" fill-opacity="0.72"/>
  <rect x="160" y="422" width="216" height="12" rx="6" fill="#60A5FA" fill-opacity="0.58"/>
  <rect x="160" y="462" width="116" height="44" rx="14" fill="#083344"/>
  <rect x="604" y="296" width="198" height="16" rx="8" fill="#E2E8F0" fill-opacity="0.82"/>
  <rect x="604" y="332" width="324" height="12" rx="6" fill="#67E8F9" fill-opacity="0.72"/>
  <rect x="604" y="364" width="288" height="12" rx="6" fill="#60A5FA" fill-opacity="0.58"/>
  <circle cx="962" cy="432" r="76" fill="#22D3EE" fill-opacity="0.18"/>
</svg>
