<svg width="1200" height="630" viewBox="0 0 1200 630" fill="none" xmlns="http://www.w3.org/2000/svg">
  <defs>
    <linearGradient id="bg" x1="62" y1="54" x2="1128" y2="592" gradientUnits="userSpaceOnUse">
      <stop stop-color="#052E16"/>
      <stop offset="1" stop-color="#0F172A"/>
    </linearGradient>
  </defs>
  <rect width="1200" height="630" rx="32" fill="url(#bg)"/>
  <rect x="82" y="82" width="514" height="468" rx="28" fill="#08160E" stroke="#86EFAC" stroke-opacity="0.22"/>
  <text x="124" y="188" fill="#F0FDF4" font-size="68" font-family="Arial, sans-serif" font-weight="700">Platform Reliability</text>
  <text x="124" y="246" fill="#BBF7D0" font-size="28" font-family="Arial, sans-serif">Observability, rollout safety, payment correctness,</text>
  <text x="124" y="286" fill="#BBF7D0" font-size="28" font-family="Arial, sans-serif">and engineering systems that keep failure understandable.</text>
  <rect x="656" y="110" width="456" height="420" rx="28" fill="#08160E" stroke="#86EFAC" stroke-opacity="0.22"/>
  <path d="M700 430C756 344 798 320 848 320C898 320 930 360 974 360C1018 360 1042 332 1070 278" stroke="#4ADE80" stroke-width="10" stroke-linecap="round"/>
  <circle cx="756" cy="344" r="12" fill="#DCFCE7"/>
  <circle cx="848" cy="320" r="12" fill="#DCFCE7"/>
  <circle cx="930" cy="360" r="12" fill="#DCFCE7"/>
  <circle cx="1070" cy="278" r="12" fill="#DCFCE7"/>
  <rect x="700" y="170" width="196" height="16" rx="8" fill="#DCFCE7" fill-opacity="0.84"/>
  <rect x="700" y="204" width="320" height="12" rx="6" fill="#86EFAC" fill-opacity="0.74"/>
</svg>
