<svg width="1200" height="630" viewBox="0 0 1200 630" fill="none" xmlns="http://www.w3.org/2000/svg">
  <defs>
    <linearGradient id="bg" x1="64" y1="38" x2="1130" y2="592" gradientUnits="userSpaceOnUse">
      <stop stop-color="#111827"/>
      <stop offset="1" stop-color="#1D4ED8"/>
    </linearGradient>
  </defs>
  <rect width="1200" height="630" rx="32" fill="url(#bg)"/>
  <rect x="72" y="78" width="1056" height="474" rx="28" fill="#0A1020" stroke="#93C5FD" stroke-opacity="0.18"/>
  <text x="118" y="178" fill="#E2E8F0" font-size="70" font-family="Arial, sans-serif" font-weight="700">Backend Craft</text>
  <text x="118" y="232" fill="#BFDBFE" font-size="28" font-family="Arial, sans-serif">API design, performance tuning, service structure, caching,</text>
  <text x="118" y="272" fill="#BFDBFE" font-size="28" font-family="Arial, sans-serif">and the kind of engineering choices that stay readable.</text>
  <rect x="118" y="330" width="330" height="158" rx="24" fill="#111827" stroke="#60A5FA" stroke-opacity="0.18"/>
  <rect x="490" y="330" width="258" height="158" rx="24" fill="#111827" stroke="#60A5FA" stroke-opacity="0.18"/>
  <rect x="790" y="330" width="270" height="158" rx="24" fill="#111827" stroke="#60A5FA" stroke-opacity="0.18"/>
  <rect x="154" y="368" width="154" height="16" rx="8" fill="#E2E8F0" fill-opacity="0.82"/>
  <rect x="154" y="402" width="246" height="12" rx="6" fill="#60A5FA" fill-opacity="0.72"/>
  <rect x="154" y="430" width="214" height="12" rx="6" fill="#93C5FD" fill-opacity="0.54"/>
  <rect x="526" y="368" width="118" height="16" rx="8" fill="#E2E8F0" fill-opacity="0.82"/>
  <rect x="526" y="402" width="180" height="12" rx="6" fill="#38BDF8" fill-opacity="0.72"/>
  <rect x="526" y="430" width="132" height="12" rx="6" fill="#93C5FD" fill-opacity="0.54"/>
  <rect x="826" y="368" width="140" height="16" rx="8" fill="#E2E8F0" fill-opacity="0.82"/>
  <rect x="826" y="402" width="188" height="12" rx="6" fill="#60A5FA" fill-opacity="0.72"/>
  <rect x="826" y="430" width="160" height="12" rx="6" fill="#93C5FD" fill-opacity="0.54"/>
</svg>
