<svg width="1200" height="630" viewBox="0 0 1200 630" fill="none" xmlns="http://www.w3.org/2000/svg">
  <defs>
    <linearGradient id="bg" x1="58" y1="48" x2="1124" y2="594" gradientUnits="userSpaceOnUse">
      <stop stop-color="#111827"/>
      <stop offset="1" stop-color="#7C2D12"/>
    </linearGradient>
  </defs>
  <rect width="1200" height="630" rx="32" fill="url(#bg)"/>
  <rect x="84" y="82" width="500" height="468" rx="28" fill="#0B1223" stroke="#FDBA74" stroke-opacity="0.18"/>
  <text x="124" y="182" fill="#FFF7ED" font-size="68" font-family="Arial, sans-serif" font-weight="700">Engineering Practice</text>
  <text x="124" y="242" fill="#FED7AA" font-size="28" font-family="Arial, sans-serif">Documentation, review habits, portfolio thinking,</text>
  <text x="124" y="282" fill="#FED7AA" font-size="28" font-family="Arial, sans-serif">and the craft around building teams and code well.</text>
  <rect x="644" y="114" width="466" height="434" rx="28" fill="#0B1223" stroke="#FDBA74" stroke-opacity="0.18"/>
  <rect x="692" y="166" width="226" height="16" rx="8" fill="#FFF7ED" fill-opacity="0.82"/>
  <rect x="692" y="200" width="326" height="12" rx="6" fill="#FB923C" fill-opacity="0.74"/>
  <rect x="692" y="232" width="284" height="12" rx="6" fill="#FDBA74" fill-opacity="0.54"/>
  <rect x="692" y="294" width="372" height="172" rx="24" fill="#1C1917"/>
  <rect x="722" y="328" width="124" height="14" rx="7" fill="#FFF7ED" fill-opacity="0.82"/>
  <rect x="722" y="362" width="254" height="12" rx="6" fill="#FB923C" fill-opacity="0.74"/>
  <rect x="722" y="390" width="212" height="12" rx="6" fill="#FDBA74" fill-opacity="0.54"/>
</svg>
