<svg width="1200" height="630" viewBox="0 0 1200 630" fill="none" xmlns="http://www.w3.org/2000/svg">
  <defs>
    <linearGradient id="bg" x1="96" y1="44" x2="1098" y2="586" gradientUnits="userSpaceOnUse">
      <stop stop-color="#0F172A"/>
      <stop offset="1" stop-color="#7C3AED"/>
    </linearGradient>
  </defs>
  <rect width="1200" height="630" rx="32" fill="url(#bg)"/>
  <rect x="84" y="82" width="508" height="466" rx="30" fill="#0B1223" stroke="#C4B5FD" stroke-opacity="0.24"/>
  <text x="126" y="186" fill="#F5F3FF" font-size="68" font-family="Arial, sans-serif" font-weight="700">Frontend Systems</text>
  <text x="126" y="244" fill="#DDD6FE" font-size="28" font-family="Arial, sans-serif">Next.js architecture, rendering boundaries,</text>
  <text x="126" y="284" fill="#DDD6FE" font-size="28" font-family="Arial, sans-serif">and codebases meant to survive feature pressure.</text>
  <rect x="656" y="110" width="456" height="420" rx="28" fill="#0B1223" stroke="#C4B5FD" stroke-opacity="0.2"/>
  <rect x="700" y="158" width="368" height="236" rx="22" fill="#181028"/>
  <rect x="724" y="190" width="148" height="16" rx="8" fill="#F5F3FF" fill-opacity="0.82"/>
  <rect x="724" y="226" width="290" height="12" rx="6" fill="#A78BFA" fill-opacity="0.74"/>
  <rect x="724" y="256" width="318" height="12" rx="6" fill="#C4B5FD" fill-opacity="0.54"/>
  <rect x="724" y="298" width="114" height="42" rx="14" fill="#312E81"/>
  <rect x="852" y="298" width="108" height="42" rx="14" fill="#4C1D95"/>
  <rect x="974" y="298" width="70" height="42" rx="14" fill="#6D28D9"/>
  <rect x="700" y="426" width="172" height="16" rx="8" fill="#F5F3FF" fill-opacity="0.82"/>
  <rect x="700" y="458" width="278" height="12" rx="6" fill="#A78BFA" fill-opacity="0.74"/>
</svg>
