<svg width="1200" height="630" viewBox="0 0 1200 630" fill="none" xmlns="http://www.w3.org/2000/svg">
  <defs>
    <linearGradient id="bg" x1="74" y1="52" x2="1120" y2="594" gradientUnits="userSpaceOnUse">
      <stop stop-color="#0F172A"/>
      <stop offset="1" stop-color="#155E75"/>
    </linearGradient>
  </defs>
  <rect width="1200" height="630" rx="32" fill="url(#bg)"/>
  <circle cx="1010" cy="130" r="170" fill="#22D3EE" fill-opacity="0.12"/>
  <circle cx="172" cy="540" r="180" fill="#60A5FA" fill-opacity="0.12"/>
  <rect x="86" y="82" width="454" height="466" rx="28" fill="#0B1223" stroke="#67E8F9" stroke-opacity="0.24"/>
  <text x="86" y="186" fill="#E2E8F0" font-size="68" font-family="Arial, sans-serif" font-weight="700">AI Systems</text>
  <text x="86" y="246" fill="#A5F3FC" font-size="28" font-family="Arial, sans-serif">Product trust, review loops, workflow design,</text>
  <text x="86" y="286" fill="#A5F3FC" font-size="28" font-family="Arial, sans-serif">and the operational edge of LLM features.</text>
  <rect x="640" y="110" width="456" height="134" rx="24" fill="#0B1223" stroke="#67E8F9" stroke-opacity="0.18"/>
  <rect x="676" y="146" width="214" height="18" rx="9" fill="#E2E8F0" fill-opacity="0.82"/>
  <rect x="676" y="182" width="356" height="14" rx="7" fill="#67E8F9" fill-opacity="0.72"/>
  <rect x="640" y="274" width="456" height="246" rx="24" fill="#0B1223" stroke="#67E8F9" stroke-opacity="0.18"/>
  <rect x="676" y="320" width="134" height="14" rx="7" fill="#E2E8F0" fill-opacity="0.82"/>
  <rect x="676" y="354" width="320" height="12" rx="6" fill="#60A5FA" fill-opacity="0.74"/>
  <rect x="676" y="388" width="286" height="12" rx="6" fill="#38BDF8" fill-opacity="0.64"/>
  <rect x="676" y="432" width="154" height="52" rx="16" fill="#083344"/>
  <rect x="850" y="432" width="210" height="52" rx="16" fill="#082F49"/>
</svg>
