<svg width="1200" height="630" viewBox="0 0 1200 630" fill="none" xmlns="http://www.w3.org/2000/svg">
  <defs>
    <linearGradient id="bg" x1="78" y1="40" x2="1114" y2="594" gradientUnits="userSpaceOnUse">
      <stop stop-color="#1E293B"/>
      <stop offset="1" stop-color="#0F766E"/>
    </linearGradient>
  </defs>
  <rect width="1200" height="630" rx="32" fill="url(#bg)"/>
  <rect x="86" y="82" width="1030" height="468" rx="30" fill="#0B1223" stroke="#5EEAD4" stroke-opacity="0.2"/>
  <text x="120" y="178" fill="#F0FDFA" font-size="70" font-family="Arial, sans-serif" font-weight="700">Product Operations</text>
  <text x="120" y="236" fill="#99F6E4" font-size="28" font-family="Arial, sans-serif">Internal tooling, analytics surfaces, decision-friendly dashboards,</text>
  <text x="120" y="276" fill="#99F6E4" font-size="28" font-family="Arial, sans-serif">and interfaces built for teams that need signal more than spectacle.</text>
  <rect x="122" y="336" width="254" height="154" rx="24" fill="#0F172A" stroke="#2DD4BF" stroke-opacity="0.18"/>
  <rect x="404" y="336" width="318" height="154" rx="24" fill="#0F172A" stroke="#2DD4BF" stroke-opacity="0.18"/>
  <rect x="750" y="336" width="322" height="154" rx="24" fill="#0F172A" stroke="#2DD4BF" stroke-opacity="0.18"/>
  <rect x="156" y="372" width="112" height="16" rx="8" fill="#F0FDFA" fill-opacity="0.82"/>
  <rect x="156" y="406" width="164" height="44" rx="14" fill="#134E4A"/>
  <rect x="438" y="372" width="174" height="16" rx="8" fill="#F0FDFA" fill-opacity="0.82"/>
  <rect x="438" y="406" width="244" height="12" rx="6" fill="#2DD4BF" fill-opacity="0.72"/>
  <rect x="438" y="434" width="210" height="12" rx="6" fill="#99F6E4" fill-opacity="0.52"/>
  <rect x="784" y="372" width="144" height="16" rx="8" fill="#F0FDFA" fill-opacity="0.82"/>
  <rect x="784" y="406" width="208" height="44" rx="14" fill="#0F766E"/>
</svg>
